PathFileType	4	(X/Y/Z)	s05c0001.trc
DataRate	CameraRate	NumFrames	NumMarkers	Units	OrigDataRate	OrigDataStartFrame	OrigNumFrames
200	200	4	49	mm	200	750	2000
Frame#	Time	racr			lacr			c7			jug			rlel			rdr			llel			ldr			s2			lic			ric			lasi			rasi			rpsi			lpsi			rgt			lgt			rth1			rth2			rth3			rth4			rlfc			rmfc			rsh1			rsh2			rsh3			rsh4			rlmal			rmmal			rcal			rtoe			rmt5			rmt1			lth1			lth2			lth4			lth3			llfc			lmfc			lsh1			lsh2			lsh3			lsh4			llmal			lmmal			lcal			ltoe			lmt1			lmt5			
		X1	Y1	Z1	X2	Y2	Z2	X3	Y3	Z3	X4	Y4	Z4	X5	Y5	Z5	X6	Y6	Z6	X7	Y7	Z7	X8	Y8	Z8	X9	Y9	Z9	X10	Y10	Z10	X11	Y11	Z11	X12	Y12	Z12	X13	Y13	Z13	X14	Y14	Z14	X15	Y15	Z15	X16	Y16	Z16	X17	Y17	Z17	X18	Y18	Z18	X19	Y19	Z19	X20	Y20	Z20	X21	Y21	Z21	X22	Y22	Z22	X23	Y23	Z23	X24	Y24	Z24	X25	Y25	Z25	X26	Y26	Z26	X27	Y27	Z27	X28	Y28	Z28	X29	Y29	Z29	X30	Y30	Z30	X31	Y31	Z31	X32	Y32	Z32	X33	Y33	Z33	X34	Y34	Z34	X35	Y35	Z35	X36	Y36	Z36	X37	Y37	Z37	X38	Y38	Z38	X39	Y39	Z39	X40	Y40	Z40	X41	Y41	Z41	X42	Y42	Z42	X43	Y43	Z43	X44	Y44	Z44	X45	Y45	Z45	X46	Y46	Z46	X47	Y47	Z47	X48	Y48	Z48	X49	Y49	Z49	
750	3.7500	268.867279	1528.132690	348.172150	256.852783	1534.943237	1.946476	203.012527	1571.093384	170.998276	346.160767	1484.146851	170.115707	236.737198	1281.649292	533.034607	306.112885	1136.827026	741.898987	202.917969	1292.434204	-194.207535	235.374481	1156.920532	-431.592987	178.109085	1035.736694	180.607758	319.721588	1095.166382	30.933296	322.478058	1076.368652	316.631836	372.534393	1029.256348	63.087444	379.062744	1020.148254	284.457703	201.824478	1068.222778	223.801208	199.278671	1072.207153	134.593552	273.141205	923.208557	334.548401	245.578491	953.803162	10.421467	276.291412	824.918396	350.821472	288.161530	735.947632	349.879669	253.681641	655.917053	338.021515	324.659729	732.269104	341.228149	256.162506	507.466522	312.331268	248.785736	506.757629	211.358719	202.857742	410.141266	339.979462	218.019180	322.534973	330.913361	190.089523	242.191803	323.652161	250.372467	323.064728	308.131500	187.176102	109.616318	305.751831	212.921799	124.586929	227.847473	136.835068	62.407703	249.240799	424.700897	80.988007	309.452423	317.313995	44.849545	355.999786	350.578094	47.176388	242.548599	262.722656	821.983276	-10.911687	284.875092	739.190674	-4.845236	320.846558	738.939758	7.381021	259.438934	652.412109	6.223215	247.035614	516.885010	38.930164	239.861771	509.184204	138.896683	195.868530	400.162354	12.835530	210.840210	314.087982	22.928801	179.231003	231.155792	27.225578	243.085373	313.861237	43.468884	183.243774	108.852386	41.863075	211.866913	127.589386	115.180016	136.940125	57.412529	94.063934	425.049133	79.379303	39.350990	351.267883	48.175533	106.059509	312.848633	38.241165	-5.450349	
751	3.7550	268.880402	1528.136841	348.173615	256.883575	1534.933716	1.937943	203.008057	1571.093140	171.026413	346.168701	1484.152466	170.124374	236.767731	1281.649780	533.037415	306.125000	1136.838257	741.899109	202.939545	1292.443237	-194.195221	235.395386	1156.890869	-431.580353	178.118271	1035.743042	180.612183	319.728180	1095.167114	30.940279	322.490082	1076.364014	316.651489	372.532990	1029.226929	63.073193	379.066010	1020.128357	284.475098	201.834229	1068.219482	223.804794	199.294876	1072.204712	134.598785	273.126770	923.195740	334.556763	245.594635	953.799744	10.427000	276.293335	824.916260	350.813385	288.161774	735.950989	349.874542	253.673187	655.935181	338.034729	324.644135	732.256897	341.246368	256.169952	507.461456	312.325195	248.809021	506.766815	211.377319	202.835693	410.140686	339.987640	218.028397	322.531677	330.951874	190.095413	242.191696	323.652954	250.371429	323.049072	308.121704	187.172623	109.623619	305.745758	212.919693	124.592094	227.847641	136.832382	62.421158	249.241394	424.704102	80.987823	309.458527	317.314545	44.853451	356.012238	350.587585	47.183743	242.537292	262.737030	821.980591	-10.910146	284.890686	739.192139	-4.828884	320.852814	738.944214	7.380950	259.443665	652.450317	6.248895	247.047836	516.871521	38.942448	239.849579	509.173248	138.889130	195.885712	400.146576	12.840061	210.833649	314.078888	22.933031	179.238953	231.156616	27.243484	243.087219	313.846680	43.465458	183.243347	108.844955	41.870186	211.881622	127.584686	115.192528	136.945496	57.412506	94.061119	425.062866	79.361328	39.352455	351.251556	48.185173	106.043411	312.843018	38.238270	-5.438398	
752	3.7600	268.889618	1528.138550	348.173828	256.905548	1534.930054	1.956784	203.038071	1571.093262	171.003952	346.179779	1484.156982	170.125519	236.766724	1281.659302	533.043701	306.130005	1136.841187	741.903931	202.957642	1292.419434	-194.177734	235.424255	1156.865967	-431.559753	178.104248	1035.744507	180.603836	319.741577	1095.165039	30.950623	322.492706	1076.361084	316.634338	372.544189	1029.238525	63.095734	379.075714	1020.141418	284.478363	201.832947	1068.240967	223.811569	199.295715	1072.208130	134.598328	273.131104	923.213684	334.550201	245.603470	953.802307	10.419401	276.297272	824.907043	350.808899	288.154999	735.941223	349.889191	253.669327	655.940613	338.038208	324.644745	732.260498	341.243988	256.158508	507.462769	312.320465	248.765488	506.763031	211.361145	202.839890	410.135315	339.983765	218.031082	322.525574	330.952820	190.074844	242.183456	323.661713	250.379868	323.062469	308.132690	187.186447	109.610947	305.749725	212.921890	124.587044	227.847610	136.825989	62.426445	249.238693	424.701874	80.981224	309.464691	317.323608	44.855892	356.004333	350.586517	47.187420	242.535095	262.760345	821.981689	-10.894244	284.902100	739.175415	-4.821320	320.882263	738.929443	7.400036	259.449860	652.416687	6.240346	247.037720	516.881226	38.950188	239.854462	509.171234	138.890182	195.904953	400.127075	12.874456	210.854996	314.075012	22.944660	179.249130	231.154068	27.233255	243.092102	313.862244	43.473572	183.243347	108.844948	41.870182	211.874313	127.598038	115.198921	136.951630	57.405560	94.068428	425.061493	79.371964	39.365803	351.264862	48.197147	106.045052	312.842285	38.252880	-5.450525	
753	3.7650	268.888428	1528.136108	348.181274	256.914612	1534.937988	1.980984	203.045883	1571.103149	170.988754	346.185455	1484.145386	170.142456	236.747070	1281.653320	533.054504	306.133057	1136.842163	741.916626	202.986038	1292.416504	-194.186523	235.437943	1156.858521	-431.549957	178.113525	1035.733887	180.598282	319.746063	1095.170654	30.947609	322.488831	1076.364258	316.645142	372.557007	1029.246338	63.104366	379.085388	1020.133972	284.497375	201.830353	1068.232056	223.826279	199.305527	1072.214111	134.604584	273.122894	923.206604	334.554291	245.618637	953.808472	10.431886	276.286865	824.913208	350.795135	288.141571	735.954102	349.882965	253.662796	655.935486	338.030396	324.647430	732.254150	341.237640	256.151428	507.456818	312.330200	248.774170	506.750824	211.363892	202.839828	410.139496	339.990509	218.020386	322.533173	330.942871	190.086670	242.185638	323.661224	250.367493	323.048279	308.128021	187.188583	109.611244	305.749298	212.921585	124.585533	227.848709	136.833557	62.418713	249.234467	424.714752	80.987175	309.463226	317.328796	44.842739	355.997650	350.591125	47.177135	242.546249	262.763824	821.983582	-10.892129	284.911102	739.191162	-4.841281	320.888824	738.930664	7.397252	259.470062	652.421509	6.236659	247.047272	516.875610	38.964615	239.852966	509.174805	138.897552	195.899658	400.122864	12.863351	210.856201	314.081390	22.929852	179.252960	231.143250	27.240973	243.086838	313.853302	43.490124	183.254044	108.855583	41.864780	211.877487	127.587395	115.197693	136.953552	57.402233	94.063797	425.053467	79.386017	39.357365	351.276154	48.182442	106.042885	312.840302	38.237820	-5.424217	
